<?xml version="1.0" encoding="UTF-8"?>
<svg xmlns="http://www.w3.org/2000/svg" xmlns:xlink="http://www.w3.org/1999/xlink" width="20" height="20" viewBox="0 0 20 20" version="1.1">
<g id="surface1">
<path style=" stroke:none;fill-rule:nonzero;fill:rgb(100%,95.686275%,92.156863%);fill-opacity:1;" d="M 10 6.898438 C 8.292969 6.898438 6.898438 8.292969 6.898438 10 C 6.898438 11.707031 8.292969 13.097656 10 13.097656 C 11.707031 13.097656 13.097656 11.707031 13.097656 10 C 13.097656 8.292969 11.707031 6.898438 10 6.898438 Z M 19.296875 10 C 19.296875 8.714844 19.308594 7.445312 19.234375 6.164062 C 19.164062 4.675781 18.824219 3.355469 17.734375 2.265625 C 16.644531 1.175781 15.328125 0.839844 13.839844 0.765625 C 12.554688 0.695312 11.285156 0.707031 10.003906 0.707031 C 8.71875 0.707031 7.445312 0.695312 6.164062 0.765625 C 4.675781 0.839844 3.355469 1.175781 2.269531 2.265625 C 1.179688 3.355469 0.839844 4.675781 0.769531 6.164062 C 0.695312 7.445312 0.707031 8.71875 0.707031 10 C 0.707031 11.28125 0.695312 12.554688 0.769531 13.835938 C 0.839844 15.324219 1.179688 16.644531 2.269531 17.734375 C 3.359375 18.824219 4.675781 19.160156 6.164062 19.234375 C 7.449219 19.304688 8.722656 19.292969 10.003906 19.292969 C 11.285156 19.292969 12.558594 19.304688 13.839844 19.234375 C 15.328125 19.160156 16.648438 18.820312 17.734375 17.734375 C 18.824219 16.640625 19.164062 15.324219 19.234375 13.835938 C 19.308594 12.554688 19.296875 11.28125 19.296875 10 Z M 10 14.769531 C 7.359375 14.769531 5.230469 12.636719 5.230469 10 C 5.230469 7.359375 7.359375 5.230469 10 5.230469 C 12.640625 5.230469 14.769531 7.359375 14.769531 10 C 14.769531 12.636719 12.640625 14.769531 10 14.769531 Z M 14.964844 6.148438 C 14.347656 6.148438 13.851562 5.652344 13.851562 5.035156 C 13.851562 4.417969 14.347656 3.921875 14.964844 3.921875 C 15.582031 3.921875 16.078125 4.417969 16.078125 5.035156 C 16.078125 5.179688 16.050781 5.328125 15.992188 5.460938 C 15.9375 5.597656 15.855469 5.71875 15.75 5.824219 C 15.648438 5.925781 15.527344 6.007812 15.390625 6.0625 C 15.253906 6.121094 15.109375 6.148438 14.964844 6.148438 Z M 14.964844 6.148438 "/>
</g>
</svg>
