<?xml version="1.0" encoding="UTF-8"?>
<svg xmlns="http://www.w3.org/2000/svg" xmlns:xlink="http://www.w3.org/1999/xlink" width="20" height="20" viewBox="0 0 20 20" version="1.1">
<g id="surface1">
<path style=" stroke:none;fill-rule:nonzero;fill:rgb(100%,95.686275%,92.156863%);fill-opacity:1;" d="M 19.703125 2.992188 C 19.007812 3.359375 18.257812 3.609375 17.472656 3.71875 C 18.285156 3.140625 18.890625 2.234375 19.179688 1.160156 C 18.417969 1.699219 17.585938 2.078125 16.714844 2.28125 C 16.128906 1.539062 15.355469 1.046875 14.511719 0.882812 C 13.667969 0.714844 12.800781 0.886719 12.046875 1.367188 C 11.292969 1.847656 10.695312 2.613281 10.339844 3.539062 C 9.988281 4.46875 9.902344 5.507812 10.097656 6.5 C 8.554688 6.40625 7.046875 5.929688 5.667969 5.097656 C 4.289062 4.265625 3.074219 3.097656 2.097656 1.671875 C 1.765625 2.355469 1.574219 3.148438 1.574219 3.992188 C 1.574219 4.753906 1.730469 5.503906 2.03125 6.175781 C 2.332031 6.847656 2.769531 7.417969 3.300781 7.839844 C 2.683594 7.816406 2.082031 7.617188 1.542969 7.261719 L 1.542969 7.320312 C 1.542969 8.390625 1.851562 9.421875 2.417969 10.25 C 2.988281 11.074219 3.777344 11.640625 4.65625 11.855469 C 4.082031 12.039062 3.484375 12.066406 2.902344 11.933594 C 3.148438 12.851562 3.632812 13.652344 4.285156 14.230469 C 4.933594 14.804688 5.71875 15.125 6.527344 15.140625 C 5.152344 16.425781 3.457031 17.125 1.707031 17.121094 C 1.398438 17.121094 1.089844 17.097656 0.78125 17.054688 C 2.554688 18.414062 4.621094 19.136719 6.730469 19.132812 C 13.871094 19.132812 17.777344 12.089844 17.777344 5.984375 C 17.777344 5.785156 17.773438 5.585938 17.765625 5.386719 C 18.523438 4.734375 19.179688 3.921875 19.699219 2.996094 Z M 19.703125 2.992188 "/>
</g>
</svg>
