<?xml version="1.0" encoding="UTF-8"?>
<svg xmlns="http://www.w3.org/2000/svg" xmlns:xlink="http://www.w3.org/1999/xlink" width="20" height="20" viewBox="0 0 20 20" version="1.1">
<g id="surface1">
<path style=" stroke:none;fill-rule:nonzero;fill:rgb(100%,95.686275%,92.156863%);fill-opacity:1;" d="M 19.582031 5.421875 C 19.46875 5.019531 19.25 4.652344 18.945312 4.363281 C 18.632812 4.066406 18.25 3.855469 17.832031 3.746094 C 16.265625 3.332031 9.996094 3.332031 9.996094 3.332031 C 7.382812 3.304688 4.769531 3.433594 2.171875 3.726562 C 1.753906 3.839844 1.371094 4.058594 1.054688 4.359375 C 0.746094 4.65625 0.523438 5.019531 0.40625 5.421875 C 0.125 6.933594 -0.0078125 8.464844 0 10 C -0.0078125 11.535156 0.125 13.066406 0.40625 14.578125 C 0.519531 14.976562 0.742188 15.34375 1.054688 15.636719 C 1.363281 15.929688 1.746094 16.144531 2.171875 16.253906 C 3.757812 16.667969 9.996094 16.667969 9.996094 16.667969 C 12.613281 16.695312 15.230469 16.566406 17.832031 16.277344 C 18.25 16.167969 18.632812 15.953125 18.945312 15.65625 C 19.25 15.367188 19.46875 15.003906 19.582031 14.597656 C 19.871094 13.089844 20.011719 11.554688 20 10.019531 C 20.023438 8.476562 19.882812 6.9375 19.582031 5.421875 Z M 8.003906 12.855469 L 8.003906 7.148438 L 13.21875 10 Z M 8.003906 12.855469 "/>
</g>
</svg>
